<svg width="151" height="78" viewBox="0 0 151 78" fill="none" xmlns="http://www.w3.org/2000/svg">
<path fill-rule="evenodd" clip-rule="evenodd" d="M24.7209 5.7026C24.9043 5.95268 26.2348 6.81544 26.567 7.03628L28.4444 8.39269C27.8889 8.52155 22.8063 9.77328 22.0429 10.0273L21.8599 10.114C22.1146 10.1083 22.4348 10.0337 22.7194 10.0019C24.1193 9.84624 25.5692 9.60081 26.9711 9.39858C27.4855 9.32449 28.2092 9.26321 28.7149 9.14551C28.6171 9.56237 28.3286 9.91207 28.1396 10.2937C27.8554 10.8655 27.5227 11.388 27.1714 11.911C27.0387 12.1081 26.9604 12.2409 26.8359 12.438L23.5361 17.7567C22.6706 19.1984 21.8306 20.6192 20.9594 22.0745C20.5178 22.8127 20.1064 23.4922 19.67 24.2321C19.4403 24.6215 19.2616 24.9323 19.0307 25.3161L17.1083 28.6185C17.0066 28.7949 16.8829 28.9725 16.7869 29.1589C15.9862 30.7059 14.8083 32.535 13.9981 34.1269C13.8022 34.5124 13.5716 34.8642 13.3865 35.2385C12.9185 36.1868 12.3634 37.0991 11.8741 38.0356L10.3995 40.8697C10.1992 41.2703 10.0175 41.6316 9.82469 42.0171C9.33804 42.9877 8.48535 44.5331 8.08913 45.5067L6.98224 47.846C6.28403 49.2234 5.17631 51.7882 4.60395 53.2231C4.51521 53.4452 4.45249 53.6181 4.35473 53.835C3.64449 55.4128 3.01677 57.1814 2.46359 58.8363C1.50506 61.7015 0.292949 65.6119 0.109038 68.5943C0.0783522 69.0906 -0.00292481 69.6943 8.11898e-05 70.2079C0.0182242 73.3183 0.72981 75.9624 3.3114 77.2383C5.71042 78.4245 7.94731 78.0946 10.3034 77.1416C11.4735 76.6686 12.635 75.9835 13.6784 75.2871C15.8486 73.8379 16.6666 73.0696 18.5603 71.5458C19.1996 71.0314 19.761 70.4639 20.4108 69.9474L22.2254 68.3128C23.0477 67.5539 23.8476 66.7639 24.7049 66.05L27.2433 63.7923C28.3186 62.8381 29.4411 61.9447 30.6882 61.2005C32.2914 60.2441 34.1764 59.4249 35.3166 61.4752C36.1181 62.9154 36.3655 65.1123 36.6394 67.0434C37.2411 71.2997 38.0146 77.1427 43.1219 77.8515C45.0377 78.1176 46.8861 77.341 48.4663 76.3933C49.6333 75.693 50.8869 74.7142 51.855 73.7458L54.8294 70.6309C54.9054 70.5366 54.9569 70.5024 55.0375 70.4076L55.624 69.7018C55.7654 69.5232 55.8636 69.3905 56.0111 69.2262L57.151 67.7805C59.6547 64.4448 61.8814 60.9393 63.886 57.2781C64.0988 56.8905 64.3012 56.5757 64.5288 56.1972C64.6491 55.998 64.7278 55.8527 64.8536 55.6604C64.9709 55.4831 65.1486 55.2839 65.2006 55.0907C64.8943 55.2951 63.9253 56.6589 63.6204 57.0668L62.7177 58.3189C62.5204 58.5958 62.3496 58.8537 62.1459 59.1477C61.3863 60.2425 58.6538 63.7242 57.7117 64.7345C57.1649 65.3209 56.2466 66.4713 55.6877 67.0214L51.3213 71.2233C50.0301 72.2634 48.5348 73.431 46.9731 74.0975C44.9197 74.9741 43.2998 75.1695 41.6266 73.6392C41.4738 73.4992 41.4225 73.4215 41.2983 73.2676C41.1763 73.118 41.0789 73.017 40.9579 72.8532C40.5323 72.2784 40.2376 71.6127 40.0149 70.9414C39.7657 70.1881 39.5828 69.528 39.4396 68.6639C39.2427 67.4743 39.2847 67.0388 39.1774 66.0737L39.0783 64.0739C39.0831 63.3022 38.5631 59.0153 38.3974 58.2974C38.0206 56.6676 37.4268 55.5098 36.174 54.757C34.7867 53.9236 33.0271 54.4207 31.6463 55.108C31.3116 55.2748 31.0594 55.4194 30.7428 55.6061C29.2855 56.4645 27.4231 57.8224 26.1113 58.8982C25.9724 59.0124 25.869 59.096 25.7233 59.2103L24.1397 60.4832C23.8589 60.7122 23.6103 60.9002 23.3294 61.1287C21.9353 62.2667 19.7345 63.8809 18.3091 64.7317C17.204 65.391 15.7143 66.1481 14.2348 66.374C10.0636 67.0113 9.53029 63.2183 10.0242 59.5398C10.1454 58.6343 10.2738 57.9431 10.4409 57.1041C11.6785 50.8683 18.0536 34.5511 20.889 27.4918C21.168 26.7972 21.4566 26.1366 21.737 25.4321C22.2858 24.0566 22.8741 22.7704 23.4334 21.4199C23.565 21.1021 23.715 20.7723 23.8586 20.4454L24.7575 18.4357C24.9261 18.1011 25.059 17.7651 25.2077 17.4319L27.3109 13.1266C27.8131 12.1655 28.2941 11.3971 28.8227 10.329C28.9755 10.0191 29.0438 10.0269 29.0926 9.84531C29.2341 9.94875 29.2151 10.0466 29.2657 10.2648C29.3025 10.4227 29.3648 10.624 29.4058 10.771L31.0893 17.3237C31.1122 17.4185 31.1222 17.4811 31.152 17.5837L31.251 17.8079C31.251 16.965 30.1181 10.3912 30.1181 9.46885C30.4184 9.53881 30.8549 9.81855 31.126 9.97035L33.1765 11.047C33.5004 11.2078 33.972 11.5097 34.2198 11.567C34.1338 11.4501 33.9323 11.339 33.7959 11.2367L32.4008 10.2062C32.0713 9.95909 30.655 8.96694 30.5498 8.8233L36.865 7.20906L30.3337 8.01613C30.3986 7.73804 30.6815 7.27798 30.8173 7.04558L32.3313 4.03503C32.1726 4.14065 31.8079 4.68658 31.6725 4.8853L30.3567 6.69361C30.2053 6.90359 29.841 7.47329 29.6866 7.58572C29.6823 7.40767 28.0043 0.477318 27.8153 0.0362716C27.8114 0.0280046 27.805 0.0111605 27.7976 0L28.7688 7.74703C28.5382 7.69361 26.2075 6.44188 25.7645 6.2229C25.4569 6.0711 25.028 5.77421 24.7209 5.7026Z" fill="white"/>
<path fill-rule="evenodd" clip-rule="evenodd" d="M25.4765 43.1468H27.7427C27.9308 42.3434 30.9489 34.9853 30.9809 34.5926C31.1513 34.7167 31.7634 36.4902 31.8386 36.6971L34.0807 42.5857C34.1512 42.7703 34.2571 42.9505 34.2739 43.1468H36.5947C36.6128 42.9281 37.0372 41.8199 37.1419 41.5407C37.6965 40.0613 38.36 38.08 38.9154 36.6907C39.4886 35.2562 40.0917 33.3918 40.6734 31.8796C40.7885 31.5799 41.2171 30.4628 41.2357 30.2347H38.4838L35.8728 38.1769C35.7768 38.4625 35.5372 39.0644 35.5147 39.3269L32.8907 32.4741C32.8149 32.2641 32.7673 32.1379 32.6856 31.9253L32.2452 30.7498C31.9953 30.0979 32.4308 30.2346 30.3332 30.2346C30.1308 30.2346 29.9583 30.9124 29.8168 31.2797C29.6563 31.6976 29.5396 32.0438 29.3777 32.456L27.1799 38.2817C27.0995 38.4917 27.0368 38.6555 26.9567 38.8655L26.7936 39.2954C26.7871 39.3099 26.7638 39.3541 26.7569 39.3665L26.7171 39.4342C26.6306 39.0638 26.4787 38.6904 26.359 38.2852C26.047 37.2265 25.5474 35.9189 25.2373 34.8305C25.1235 34.4295 24.9947 34.0932 24.8623 33.6983C24.7295 33.3024 24.6269 32.9411 24.4981 32.5547C24.3762 32.1921 24.2321 31.8015 24.1269 31.4181C24.0165 31.0154 23.8419 30.6307 23.7489 30.2346H20.7266L24.8749 41.5406C24.9775 41.8153 25.0682 42.0592 25.1587 42.3331C25.2348 42.5607 25.3675 42.9419 25.4765 43.1468Z" fill="white"/>
<path fill-rule="evenodd" clip-rule="evenodd" d="M127.969 37.9284C127.969 39.4582 128.173 40.61 129.194 41.8185C130.266 43.0871 132.032 43.7175 133.685 43.2492C134.41 43.0443 135.053 42.5553 135.472 41.9634C135.563 41.8349 135.562 41.7866 135.688 41.6943V43.147H138.224V34.3237C137.79 34.2228 137.364 34.0278 136.936 33.8865C136.639 33.7882 135.864 33.482 135.634 33.4631V34.7C135.119 34.3241 134.685 33.0461 132.021 33.2517C131.604 33.2836 130.953 33.4798 130.631 33.641C129.02 34.4508 127.969 36.1921 127.969 37.9284ZM133.08 35.4301C134.493 35.4301 135.639 36.7047 135.639 38.2767C135.639 39.8492 134.493 41.1238 133.08 41.1238C131.666 41.1238 130.52 39.8492 130.52 38.2767C130.52 36.7047 131.666 35.4301 133.08 35.4301Z" fill="white"/>
<path fill-rule="evenodd" clip-rule="evenodd" d="M81.6076 43.1474H84.4677C84.5672 42.9417 84.6551 42.6822 84.7455 42.4558L85.4363 40.7232C85.4937 40.5736 85.4834 40.4573 85.6556 40.4573H90.7288C90.9244 40.4573 90.9555 40.7258 91.0917 41.0644L91.9162 43.1474H94.939L90.8063 33.4941C90.6524 33.1289 89.503 30.5315 89.4333 30.2354H87.1671L81.9702 42.3257C81.8461 42.6159 81.7443 42.8895 81.6076 43.1474ZM88.1882 33.7812L86.3463 38.4466H90.0983L88.1882 33.7812Z" fill="white"/>
<path fill-rule="evenodd" clip-rule="evenodd" d="M105.788 43.1467H108.485V37.4439L111.545 41.2267C111.731 41.4544 112.998 43.0808 113.099 43.1213C113.282 43.1943 116.081 43.1467 116.527 43.1467C116.368 42.8453 113.587 39.5667 113.134 38.997C112.712 38.4645 111.396 36.9502 111.077 36.4754C111.231 36.1844 112.313 34.9358 112.635 34.5318L114.84 31.8346C115.036 31.6165 116.048 30.4156 116.096 30.2346H112.857C112.818 30.3828 112.455 30.8032 112.335 30.9507L108.485 35.8833V30.2344H105.787V43.1466L105.788 43.1467Z" fill="white"/>
<path fill-rule="evenodd" clip-rule="evenodd" d="M117.661 43.1467H120.252V37.9281C120.252 37.3037 120.451 36.6751 120.715 36.2913C120.886 36.0416 120.987 35.9072 121.259 35.758C121.899 35.4074 122.878 35.3898 123.481 35.7847C124.197 36.2529 124.408 37.3366 124.408 38.2507V43.1467H126.998V37.4978C126.998 35.0276 125.772 33.1937 123.274 33.1937C122.198 33.1937 121.13 33.5649 120.521 34.3764C120.44 34.4839 120.357 34.6231 120.252 34.6998V30.9878L118.332 30.4263C118.141 30.3724 117.797 30.2996 117.661 30.2344V43.1467Z" fill="white"/>
<path fill-rule="evenodd" clip-rule="evenodd" d="M54.567 34.6998C54.567 34.0108 54.6556 34.0242 54.4073 33.9444L52.8444 33.6202C52.6069 33.5714 52.2976 33.4684 52.0303 33.4628V43.1467H54.6214V37.928C54.6214 37.3036 54.8203 36.675 55.0842 36.2912C55.255 36.0416 55.3567 35.9071 55.6289 35.7579C56.5204 35.2694 57.8734 35.4276 58.3825 36.3844C58.6503 36.8876 58.7766 37.5045 58.7766 38.2506V43.1467H61.3681V37.3899C61.3681 35.2621 60.5022 33.7766 58.5633 33.2994C57.3578 33.0023 56.0562 33.2959 55.1218 34.0699C54.8857 34.2661 54.778 34.5598 54.567 34.6998Z" fill="white"/>
<path fill-rule="evenodd" clip-rule="evenodd" d="M41.452 39.112C41.452 40.444 41.9006 41.1489 42.5541 41.9945L43.1463 42.5339C43.8993 43.1052 45.33 43.5045 46.2699 43.3777C46.9854 43.2811 47.3486 43.3152 48.1096 42.9504C48.7571 42.64 48.9791 42.4481 49.4544 41.9777C50.2305 41.208 50.573 40.049 50.573 38.52V33.463H47.9283V38.789C47.9283 39.8992 47.378 41.1022 46.0393 41.1022C44.6672 41.1022 44.0425 39.9949 44.0425 38.6815V33.4629H41.4519L41.452 39.112Z" fill="white"/>
<path fill-rule="evenodd" clip-rule="evenodd" d="M34.6512 49.9254C34.6512 50.8209 34.6404 50.9456 34.9671 51.7631C35.4153 52.8867 36.8012 53.7452 38.0521 53.7452H38.3757C40.3226 53.7452 41.8843 52.2426 41.8843 50.3018C41.8843 49.1346 41.6403 48.4469 40.9118 47.6125C40.5083 47.1498 39.4645 46.5897 38.5912 46.5897C37.6469 46.5897 37.5154 46.5569 36.6399 46.9041C36.3176 47.0318 36.1247 47.1784 35.876 47.3797C35.1281 47.9841 34.6512 48.8982 34.6512 49.9254ZM38.2666 47.8419C39.4726 47.8419 40.4494 48.8767 40.4494 50.1539C40.4494 51.4306 39.4726 52.4655 38.2666 52.4655C37.061 52.4655 36.0838 51.4306 36.0838 50.1539C36.0838 48.8767 37.061 47.8419 38.2666 47.8419Z" fill="white"/>
<path fill-rule="evenodd" clip-rule="evenodd" d="M114.476 49.9261C114.476 50.8144 114.463 50.9596 114.792 51.7632C115.693 53.961 119.049 54.3951 120.67 52.7645C122.1 51.3278 122.039 48.8261 120.65 47.5386C119.218 46.2105 116.748 46.2856 115.459 47.57C115.222 47.8067 114.939 48.2344 114.781 48.5622C114.612 48.9141 114.476 49.4271 114.476 49.9261ZM118.089 47.8426C119.295 47.8426 120.273 48.8774 120.273 50.1546C120.273 51.4313 119.295 52.4661 118.089 52.4661C116.884 52.4661 115.907 51.4313 115.907 50.1546C115.907 48.8774 116.884 47.8426 118.089 47.8426Z" fill="white"/>
<path fill-rule="evenodd" clip-rule="evenodd" d="M63.689 33.4636H62.8787C62.842 33.6218 62.7681 33.7662 62.71 33.9405L62.3463 34.9766C62.2745 35.1732 62.1975 35.272 62.1771 35.5078H63.689V43.1475H66.2792V35.5078H68.2768V33.4636H66.2792V30.9886C65.9776 30.9635 64.0108 30.1547 63.689 30.1279V33.4636Z" fill="white"/>
<path fill-rule="evenodd" clip-rule="evenodd" d="M71.5149 53.6381C73.3451 53.6381 75.1437 53.8364 76.4579 52.8094C78.5697 51.1606 77.8624 46.6982 74.0511 46.6982H71.5149V53.6381ZM73.4105 47.9341C74.1528 47.9341 74.8089 48.0694 75.2931 48.435C75.8294 48.8403 76.1552 49.5082 76.1552 50.152C76.1552 50.9665 75.6833 51.7517 74.8479 52.1376C74.4266 52.3321 73.9352 52.3705 73.4105 52.3705C73.2495 52.3705 73.0908 52.3597 72.9369 52.3395V47.9652C73.0908 47.9445 73.2496 47.9341 73.4105 47.9341Z" fill="white"/>
<path fill-rule="evenodd" clip-rule="evenodd" d="M146.213 34.9157C146.213 33.8235 146.455 34.0379 145.336 33.7995C145.025 33.733 144.785 33.6787 144.49 33.6197C144.24 33.5696 143.894 33.4636 143.621 33.4636V43.1475H146.213V38.8434C146.213 36.6405 147.117 35.8842 149.289 35.8842C149.454 35.6381 149.482 35.4983 149.616 35.2419C150.173 34.1747 150.237 34.2474 150.8 33.4098C149.482 33.4098 147.884 33.2101 146.927 34.0681C146.307 34.624 146.517 34.5674 146.213 34.9157Z" fill="white"/>
<path fill-rule="evenodd" clip-rule="evenodd" d="M96.0721 43.1467H98.6091V31.2569C98.6091 31.0534 97.7259 30.8157 97.388 30.698L96.0721 30.2344V43.1467Z" fill="white"/>
<path fill-rule="evenodd" clip-rule="evenodd" d="M127.592 53.4766C127.592 53.7499 128.088 53.6378 128.833 53.6378C129.094 53.6378 128.995 53.1644 128.995 52.6698V49.2264C129.706 50.0408 130.986 51.4302 131.686 52.3011L132.701 53.4412C132.936 53.7094 132.9 53.6378 133.637 53.6378C133.761 53.6378 133.799 53.6008 133.799 53.4766V46.6979H132.395V51.0555C132.147 50.8894 131.435 49.9797 131.195 49.7236L129.954 48.3248C129.851 48.21 129.847 48.1738 129.737 48.0565C128.375 46.5957 128.992 46.6978 127.592 46.6978V53.4766Z" fill="white"/>
<path fill-rule="evenodd" clip-rule="evenodd" d="M59.4247 53.4769C59.4247 53.7575 59.9962 53.6381 60.7744 53.6381V49.2267C61.0209 49.3914 61.0797 49.5457 61.2726 49.7517L62.515 51.1493C62.6391 51.276 62.6478 51.3217 62.7581 51.4455L64.2154 53.1133C64.786 53.7536 64.5286 53.6381 65.4698 53.6381C65.5939 53.6381 65.6321 53.6011 65.6321 53.4769V46.8595C65.6321 46.5754 65.0204 46.6983 64.2284 46.6983V51.1098L63.2707 50.0197C63.0855 49.83 62.967 49.6779 62.784 49.483C62.6686 49.36 62.6577 49.3109 62.5414 49.1867L60.8358 47.2282C60.2674 46.5245 60.453 46.6982 59.4247 46.6982V53.4769Z" fill="white"/>
<path fill-rule="evenodd" clip-rule="evenodd" d="M139.898 43.1468H142.488V33.4629H139.898V43.1468Z" fill="white"/>
<path fill-rule="evenodd" clip-rule="evenodd" d="M69.3019 43.1468H71.8385V33.4629H69.3019V43.1468Z" fill="white"/>
<path fill-rule="evenodd" clip-rule="evenodd" d="M83.0649 53.6381C84.793 53.6381 84.4785 53.8002 84.815 52.962C84.9097 52.7257 85.0642 52.4066 85.1161 52.1859H87.9762L88.5696 53.638H90.1347C90.1161 53.4125 89.5611 52.2014 89.4352 51.9151C89.2267 51.4421 87.2948 47.0156 87.2205 46.6982H85.9794L84.5069 50.1266C84.3655 50.4552 83.071 53.3648 83.0649 53.6381ZM86.5236 48.6114L85.543 51.0959H87.541L86.5236 48.6114Z" fill="white"/>
<path fill-rule="evenodd" clip-rule="evenodd" d="M47.7671 50.5717C47.7671 52.6508 48.6893 53.746 50.7348 53.746C52.5339 53.746 53.5414 52.4762 53.5414 50.6794V46.6984H52.0845V50.0339C52.0845 51.3697 51.9617 52.3972 50.7215 52.4955C50.5025 52.5128 50.1085 52.4187 49.9463 52.3269C49.271 51.9444 49.2244 50.985 49.2244 50.1413V46.6982H47.7671V50.5717Z" fill="white"/>
<path fill-rule="evenodd" clip-rule="evenodd" d="M24.7748 53.4769C24.7748 53.7542 25.3073 53.6381 26.0699 53.6381C26.194 53.6381 26.2312 53.6011 26.2312 53.4769V51.0558H28.4983V49.7649H26.2312V47.9892H28.7683C29.046 47.9892 28.93 47.458 28.93 46.6982H24.7747L24.7748 53.4769Z" fill="white"/>
<path fill-rule="evenodd" clip-rule="evenodd" d="M96.0721 47.9355H97.9072V53.6379H99.2028C99.3268 53.6379 99.3649 53.6009 99.3649 53.4767V47.9356H101.2V46.6982H96.0722L96.0721 47.9355Z" fill="white"/>
<path fill-rule="evenodd" clip-rule="evenodd" d="M99.9041 39.4885H105.085V37.4443H99.9041V39.4885Z" fill="white"/>
<path fill-rule="evenodd" clip-rule="evenodd" d="M107.083 53.4769C107.083 53.6011 107.12 53.6381 107.244 53.6381H108.54V46.6982H107.083V53.4769Z" fill="white"/>
<path fill-rule="evenodd" clip-rule="evenodd" d="M69.1402 31.3644C69.1402 32.2815 69.7682 32.8848 70.549 32.9041C71.3441 32.9242 72.0003 32.291 72.0003 31.3644C72.0003 30.7146 71.3554 30.0195 70.7053 30.0195H70.4353C69.7851 30.0195 69.1402 30.7145 69.1402 31.3644Z" fill="white"/>
<path fill-rule="evenodd" clip-rule="evenodd" d="M139.736 31.4183C139.736 32.7623 141.365 33.4375 142.265 32.3799C142.355 32.275 142.347 32.2872 142.418 32.1555C142.979 31.1285 142.167 30.0195 141.301 30.0195C140.839 30.0195 140.457 30.0786 140.128 30.4641C139.956 30.6637 139.736 31.0742 139.736 31.4183Z" fill="white"/>
</svg>
